<svg xmlns="http://www.w3.org/2000/svg" xmlns:xlink="http://www.w3.org/1999/xlink" width="1820" zoomAndPan="magnify" viewBox="0 0 1365 299.999988" height="400" preserveAspectRatio="xMidYMid meet" version="1.0"><defs><g/><clipPath id="b7dfe175b9"><path d="M 49.386719 3.714844 L 183.519531 3.714844 L 183.519531 121.082031 L 49.386719 121.082031 Z M 49.386719 3.714844 " clip-rule="nonzero"/></clipPath><clipPath id="585b519b52"><path d="M 116.453125 121.082031 L 183.519531 3.714844 L 49.386719 3.714844 L 116.453125 121.082031 " clip-rule="nonzero"/></clipPath></defs><g fill="#000000" fill-opacity="1"><g transform="translate(237.097287, 294.185179)"><g><path d="M 196.953125 -50.042969 L 82.925781 -50.042969 L 82.925781 -97.226562 L 178.722656 -97.226562 C 186.945312 -97.226562 189.089844 -101.15625 189.089844 -107.589844 L 189.089844 -135.472656 C 189.089844 -141.90625 186.945312 -145.839844 178.722656 -145.839844 L 82.925781 -145.839844 L 82.925781 -184.800781 L 190.875 -184.800781 C 199.097656 -184.800781 201.242188 -188.730469 201.242188 -195.164062 L 201.242188 -224.832031 C 201.242188 -231.269531 199.097656 -235.199219 190.875 -235.199219 L 36.816406 -235.199219 C 28.59375 -235.199219 26.449219 -231.269531 26.449219 -224.832031 L 26.449219 -10.367188 C 26.449219 -3.933594 28.59375 0 36.816406 0 L 196.953125 0 C 205.175781 0 207.320312 -3.933594 207.320312 -10.367188 L 207.320312 -39.675781 C 207.320312 -46.109375 205.175781 -50.042969 196.953125 -50.042969 Z M 196.953125 -50.042969 "/></g></g></g><g fill="#000000" fill-opacity="1"><g transform="translate(461.200087, 294.185179)"><g><path d="M 219.113281 -11.4375 L 168.714844 -84.714844 C 190.875 -92.222656 218.398438 -118.316406 218.398438 -155.847656 C 218.398438 -178.722656 210.894531 -199.097656 197.667969 -211.964844 C 182.65625 -226.976562 165.496094 -234.84375 126.535156 -234.84375 L 36.460938 -234.84375 C 28.238281 -234.84375 26.449219 -230.910156 26.449219 -224.476562 L 26.449219 -10.367188 C 26.449219 -2.144531 30.027344 0 36.460938 0 L 71.847656 0 C 78.28125 0 82.210938 -2.144531 82.210938 -10.367188 L 82.210938 -184.800781 L 129.753906 -184.800781 C 148.339844 -184.800781 162.636719 -173.003906 162.636719 -154.417969 C 162.636719 -137.617188 146.195312 -125.464844 128.679688 -125.464844 L 121.53125 -125.464844 C 113.308594 -125.464844 111.164062 -121.53125 111.164062 -115.097656 L 111.164062 -86.5 C 111.164062 -76.492188 111.878906 -72.5625 115.097656 -68.273438 L 153.703125 -10.722656 C 158.707031 -3.21875 162.996094 0 171.574219 0 L 213.753906 0 C 220.542969 0 222.332031 -6.433594 219.113281 -11.4375 Z M 219.113281 -11.4375 "/></g></g></g><g fill="#000000" fill-opacity="1"><g transform="translate(699.242286, 294.185179)"><g><path d="M 222.332031 -235.199219 L 174.078125 -235.199219 C 165.855469 -235.199219 163.351562 -234.484375 156.203125 -226.621094 L 82.210938 -145.125 L 82.210938 -224.832031 C 82.210938 -233.054688 78.28125 -235.199219 72.203125 -235.199219 L 36.816406 -235.199219 C 30.027344 -235.199219 26.449219 -233.054688 26.449219 -224.832031 L 26.449219 -10.367188 C 26.449219 -2.144531 30.027344 0 36.816406 0 L 72.203125 0 C 78.28125 0 82.210938 -2.144531 82.210938 -10.367188 L 82.210938 -73.992188 L 104.375 -97.226562 C 123.675781 -65.054688 155.488281 -11.4375 155.488281 -11.4375 C 160.136719 -3.933594 164.78125 0 173.359375 0 L 216.96875 0 C 223.761719 0 225.191406 -6.792969 222.332031 -11.4375 L 145.480469 -137.972656 L 225.90625 -225.191406 C 229.121094 -228.40625 229.121094 -235.199219 222.332031 -235.199219 Z M 222.332031 -235.199219 "/></g></g></g><g fill="#000000" fill-opacity="1"><g transform="translate(932.995486, 294.185179)"><g><path d="M 228.765625 -10.007812 L 149.769531 -224.117188 C 146.554688 -231.625 142.976562 -235.199219 135.113281 -235.199219 L 100.800781 -235.199219 C 92.9375 -235.199219 89.003906 -231.625 86.144531 -224.117188 L 6.792969 -10.007812 C 5.003906 -5.71875 5.003906 0 12.867188 0 L 50.398438 0 C 58.265625 0 61.125 -2.144531 63.984375 -10.722656 L 73.992188 -38.960938 L 161.566406 -38.960938 L 171.574219 -10.722656 C 174.433594 -2.144531 177.292969 0 185.15625 0 L 222.6875 0 C 230.550781 0 230.550781 -5.71875 228.765625 -10.007812 Z M 117.957031 -168 L 144.765625 -89.003906 L 91.148438 -89.003906 Z M 117.957031 -168 "/></g></g></g><g fill="#000000" fill-opacity="1"><g transform="translate(1167.106033, 294.185179)"><g><path d="M 185.515625 -50.042969 L 82.570312 -50.042969 L 82.570312 -224.832031 C 82.570312 -233.054688 78.636719 -235.199219 72.203125 -235.199219 L 36.816406 -235.199219 C 30.382812 -235.199219 26.449219 -233.054688 26.449219 -224.832031 L 26.449219 -10.367188 C 26.449219 -3.933594 28.59375 0 36.816406 0 L 185.515625 0 C 193.734375 0 195.878906 -3.933594 195.878906 -10.367188 L 195.878906 -39.675781 C 195.878906 -46.109375 193.734375 -50.042969 185.515625 -50.042969 Z M 185.515625 -50.042969 "/></g></g></g><g fill="#000000" fill-opacity="1"><g transform="translate(-21.108673, 295.320611)"><g><path d="M 238.167969 -236.375 L 203.734375 -236.375 C 191.898438 -236.375 190.105469 -228.484375 187.59375 -224.179688 L 138.09375 -135.941406 L 88.953125 -224.179688 C 86.085938 -228.484375 84.652344 -236.375 72.457031 -236.375 L 36.945312 -236.375 C 28.695312 -236.375 26.542969 -232.429688 26.542969 -225.972656 L 26.542969 -10.402344 C 26.542969 -2.152344 30.488281 0 36.945312 0 L 72.457031 0 C 78.910156 0 82.855469 -2.152344 82.855469 -10.402344 L 82.855469 -131.996094 L 119.085938 -69.226562 C 120.878906 -66.359375 123.746094 -61.695312 129.128906 -61.695312 L 147.0625 -61.695312 C 152.441406 -61.695312 155.671875 -66.359375 157.464844 -69.226562 L 193.332031 -131.996094 L 193.332031 -10.402344 C 193.332031 -2.152344 197.277344 0 203.734375 0 L 238.167969 0 C 244.625 0 248.570312 -2.152344 248.570312 -10.402344 L 248.570312 -225.972656 C 248.570312 -232.429688 246.417969 -236.375 238.167969 -236.375 Z M 238.167969 -236.375 "/></g></g></g><g clip-path="url(#b7dfe175b9)"><g clip-path="url(#585b519b52)"><path fill="#5500ff" d="M 49.386719 3.714844 L 183.519531 3.714844 L 183.519531 121.082031 L 49.386719 121.082031 Z M 49.386719 3.714844 " fill-opacity="1" fill-rule="nonzero"/></g></g></svg>